<svg xmlns="http://www.w3.org/2000/svg" version="1.1" xmlns:xlink="http://www.w3.org/1999/xlink" xmlns:svgjs="http://svgjs.dev/svgjs" width="1440" height="560" preserveAspectRatio="none" viewBox="0 0 1440 560"><g mask="url(&quot;#SvgjsMask1077&quot;)" fill="none"><rect width="1440" height="560" x="0" y="0" fill="rgba(231, 234, 237, 1)"></rect><path d="M768.59 152.8L765.89 165.32 753.09 165.44 750.4 177.96 737.59 178.09 734.9 190.61 722.09 190.73M763.53 146.6L760.84 159.12 748.03 159.25 745.34 171.77 732.53 171.89 729.84 184.41 717.03 184.53M758.48 140.41L755.78 152.93 742.98 153.05 740.28 165.57 727.48 165.69 724.78 178.21 711.98 178.33" stroke="rgba(239, 120, 12, 1)" stroke-width="2.52" stroke-dasharray="3, 3"></path><path d="M90.98 540.38L85.16 551.79 72.75 548.62 66.93 560.03 54.53 556.86 48.71 568.26 36.3 565.09M87.68 533.09L81.86 544.5 69.46 541.33 63.64 552.74 51.23 549.57 45.41 560.97 33.01 557.8" stroke="#d3b714" stroke-width="2.43" stroke-dasharray="2, 2"></path><circle r="46.666666666666664" cx="1256.05" cy="368.83" stroke="rgba(239, 120, 12, 1)" stroke-width="2.77" stroke-dasharray="3, 2"></circle><rect width="250.24" height="250.24" clip-path="url(&quot;#SvgjsClipPath1078&quot;)" x="470.39" y="426.3" fill="url(&quot;#SvgjsPattern1079&quot;)" transform="rotate(72.69, 595.51, 551.42)"></rect><rect width="198.24" height="198.24" clip-path="url(&quot;#SvgjsClipPath1080&quot;)" x="823.78" y="135.34" fill="url(&quot;#SvgjsPattern1081&quot;)" transform="rotate(22.82, 922.9, 234.46)"></rect><circle r="46.666666666666664" cx="8.49" cy="307.37" stroke="rgba(239, 120, 12, 1)" stroke-width="2.39"></circle><path d="M364.27 78.71a5.6 5.6 0 1 0 7.53 8.3 5.6 5.6 0 1 0-7.53-8.3zM375.02 90.56a5.6 5.6 0 1 0 7.53 8.3 5.6 5.6 0 1 0-7.53-8.3zM385.77 102.41a5.6 5.6 0 1 0 7.53 8.3 5.6 5.6 0 1 0-7.53-8.3zM396.52 114.26a5.6 5.6 0 1 0 7.53 8.3 5.6 5.6 0 1 0-7.53-8.3zM330.92 65.76a5.6 5.6 0 1 0 7.53 8.29 5.6 5.6 0 1 0-7.53-8.29zM341.67 77.61a5.6 5.6 0 1 0 7.53 8.29 5.6 5.6 0 1 0-7.53-8.29zM352.42 89.46a5.6 5.6 0 1 0 7.53 8.29 5.6 5.6 0 1 0-7.53-8.29zM363.17 101.31a5.6 5.6 0 1 0 7.53 8.3 5.6 5.6 0 1 0-7.53-8.3z" fill="rgba(10, 0, 1, 1)"></path><rect width="72" height="72" clip-path="url(&quot;#SvgjsClipPath1082&quot;)" x="370.56" y="491.68" fill="url(&quot;#SvgjsPattern1083&quot;)" transform="rotate(236.96, 406.56, 527.68)"></rect><rect width="60" height="60" clip-path="url(&quot;#SvgjsClipPath1084&quot;)" x="524.81" y="237.7" fill="url(&quot;#SvgjsPattern1085&quot;)" transform="rotate(204.44, 554.81, 267.7)"></rect><circle r="62.938326753111085" cx="1184.51" cy="41.38" stroke="#d3b714" stroke-width="2.74" stroke-dasharray="3, 3"></circle><path d="M810.19 145.65L797.55 143.6 796.78 130.81 784.14 128.76 783.37 115.98 770.73 113.93 769.95 101.14M816.13 140.28L803.49 138.23 802.71 125.45 790.07 123.39 789.3 110.61 776.66 108.56 775.89 95.78M822.06 134.92L809.42 132.86 808.65 120.08 796.01 118.03 795.23 105.25 782.59 103.19 781.82 90.41" stroke="rgba(239, 120, 12, 1)" stroke-width="1.91" stroke-dasharray="3, 2"></path><rect width="299.04" height="299.04" clip-path="url(&quot;#SvgjsClipPath1086&quot;)" x="1125.42" y="-102.14" fill="url(&quot;#SvgjsPattern1087&quot;)" transform="rotate(104.61, 1274.94, 47.38)"></rect></g><defs><mask id="SvgjsMask1077"><rect width="1440" height="560" fill="#ffffff"></rect></mask><pattern x="0" y="0" width="7.82" height="7.82" patternUnits="userSpaceOnUse" id="SvgjsPattern1079"><path d="M3.91 1L3.91 6.82M1 3.91L6.82 3.91" stroke="#d3b714" fill="none" stroke-width="1.24"></path></pattern><clipPath id="SvgjsClipPath1078"><circle r="62.56" cx="595.51" cy="551.42"></circle></clipPath><pattern x="0" y="0" width="8.26" height="8.26" patternUnits="userSpaceOnUse" id="SvgjsPattern1081"><path d="M0 8.26L4.13 0L8.26 8.26" stroke="#d3b714" fill="none"></path></pattern><clipPath id="SvgjsClipPath1080"><circle r="49.56" cx="922.9" cy="234.46"></circle></clipPath><pattern x="0" y="0" width="72" height="6" patternUnits="userSpaceOnUse" id="SvgjsPattern1083"><rect width="72" height="3" x="0" y="0" fill="rgba(239, 120, 12, 1)"></rect><rect width="72" height="3" x="0" y="3" fill="rgba(0, 0, 0, 0)"></rect></pattern><clipPath id="SvgjsClipPath1082"><circle r="18" cx="406.56" cy="527.68"></circle></clipPath><pattern x="0" y="0" width="6" height="6" patternUnits="userSpaceOnUse" id="SvgjsPattern1085"><path d="M3 1L3 5M1 3L5 3" stroke="rgba(10, 0, 1, 1)" fill="none" stroke-width="1"></path></pattern><clipPath id="SvgjsClipPath1084"><circle r="15" cx="554.81" cy="267.7"></circle></clipPath><pattern x="0" y="0" width="299.04" height="7.12" patternUnits="userSpaceOnUse" id="SvgjsPattern1087"><rect width="299.04" height="3.56" x="0" y="0" fill="rgba(10, 0, 1, 1)"></rect><rect width="299.04" height="3.56" x="0" y="3.56" fill="rgba(0, 0, 0, 0)"></rect></pattern><clipPath id="SvgjsClipPath1086"><circle r="74.76" cx="1274.94" cy="47.38"></circle></clipPath></defs></svg>